<mxfile host="65bd71144e">
    <diagram id="STPHYOq-w2zS-VPcVNFG" name="Centralizado">
        <mxGraphModel dx="1555" dy="775" grid="1" gridSize="10" guides="1" tooltips="1" connect="1" arrows="1" fold="1" page="1" pageScale="1" pageWidth="850" pageHeight="1100" math="0" shadow="0">
            <root>
                <mxCell id="0"/>
                <mxCell id="1" parent="0"/>
                <mxCell id="8" value="" style="shape=cylinder3;whiteSpace=wrap;html=1;boundedLbl=1;backgroundOutline=1;size=15;fillColor=#dae8fc;strokeColor=#6c8ebf;" vertex="1" parent="1">
                    <mxGeometry x="390" y="250" width="60" height="80" as="geometry"/>
                </mxCell>
                <mxCell id="9" value="" style="pointerEvents=1;shadow=0;dashed=0;html=1;strokeColor=none;fillColor=#505050;labelPosition=center;verticalLabelPosition=bottom;verticalAlign=top;outlineConnect=0;align=center;shape=mxgraph.office.devices.mac_client;" vertex="1" parent="1">
                    <mxGeometry x="130" y="260" width="58" height="48" as="geometry"/>
                </mxCell>
                <mxCell id="10" value="" style="pointerEvents=1;shadow=0;dashed=0;html=1;strokeColor=none;fillColor=#505050;labelPosition=center;verticalLabelPosition=bottom;verticalAlign=top;outlineConnect=0;align=center;shape=mxgraph.office.devices.mac_client;" vertex="1" parent="1">
                    <mxGeometry x="270" y="110" width="58" height="48" as="geometry"/>
                </mxCell>
                <mxCell id="11" value="" style="pointerEvents=1;shadow=0;dashed=0;html=1;strokeColor=none;fillColor=#505050;labelPosition=center;verticalLabelPosition=bottom;verticalAlign=top;outlineConnect=0;align=center;shape=mxgraph.office.devices.mac_client;" vertex="1" parent="1">
                    <mxGeometry x="520" y="110" width="58" height="48" as="geometry"/>
                </mxCell>
                <mxCell id="12" value="" style="pointerEvents=1;shadow=0;dashed=0;html=1;strokeColor=none;fillColor=#505050;labelPosition=center;verticalLabelPosition=bottom;verticalAlign=top;outlineConnect=0;align=center;shape=mxgraph.office.devices.mac_client;" vertex="1" parent="1">
                    <mxGeometry x="270" y="420" width="58" height="48" as="geometry"/>
                </mxCell>
                <mxCell id="13" value="" style="pointerEvents=1;shadow=0;dashed=0;html=1;strokeColor=none;fillColor=#505050;labelPosition=center;verticalLabelPosition=bottom;verticalAlign=top;outlineConnect=0;align=center;shape=mxgraph.office.devices.mac_client;" vertex="1" parent="1">
                    <mxGeometry x="630" y="260" width="58" height="48" as="geometry"/>
                </mxCell>
                <mxCell id="14" value="" style="pointerEvents=1;shadow=0;dashed=0;html=1;strokeColor=none;fillColor=#505050;labelPosition=center;verticalLabelPosition=bottom;verticalAlign=top;outlineConnect=0;align=center;shape=mxgraph.office.devices.mac_client;" vertex="1" parent="1">
                    <mxGeometry x="500" y="420" width="58" height="48" as="geometry"/>
                </mxCell>
                <mxCell id="15" value="" style="shape=cylinder3;whiteSpace=wrap;html=1;boundedLbl=1;backgroundOutline=1;size=15;fillColor=#dae8fc;strokeColor=#6c8ebf;" vertex="1" parent="1">
                    <mxGeometry x="188" y="290" width="37.5" height="50" as="geometry"/>
                </mxCell>
                <mxCell id="16" value="" style="shape=cylinder3;whiteSpace=wrap;html=1;boundedLbl=1;backgroundOutline=1;size=15;fillColor=#dae8fc;strokeColor=#6c8ebf;" vertex="1" parent="1">
                    <mxGeometry x="310" y="150" width="37.5" height="50" as="geometry"/>
                </mxCell>
                <mxCell id="17" value="" style="shape=cylinder3;whiteSpace=wrap;html=1;boundedLbl=1;backgroundOutline=1;size=15;fillColor=#dae8fc;strokeColor=#6c8ebf;" vertex="1" parent="1">
                    <mxGeometry x="570" y="150" width="37.5" height="50" as="geometry"/>
                </mxCell>
                <mxCell id="18" value="" style="shape=cylinder3;whiteSpace=wrap;html=1;boundedLbl=1;backgroundOutline=1;size=15;fillColor=#dae8fc;strokeColor=#6c8ebf;" vertex="1" parent="1">
                    <mxGeometry x="680" y="300" width="37.5" height="50" as="geometry"/>
                </mxCell>
                <mxCell id="19" value="" style="shape=cylinder3;whiteSpace=wrap;html=1;boundedLbl=1;backgroundOutline=1;size=15;fillColor=#dae8fc;strokeColor=#6c8ebf;" vertex="1" parent="1">
                    <mxGeometry x="328" y="450" width="37.5" height="50" as="geometry"/>
                </mxCell>
                <mxCell id="20" value="" style="shape=cylinder3;whiteSpace=wrap;html=1;boundedLbl=1;backgroundOutline=1;size=15;fillColor=#dae8fc;strokeColor=#6c8ebf;" vertex="1" parent="1">
                    <mxGeometry x="558" y="450" width="37.5" height="50" as="geometry"/>
                </mxCell>
                <mxCell id="23" value="" style="endArrow=classic;startArrow=classic;html=1;" edge="1" parent="1">
                    <mxGeometry width="50" height="50" relative="1" as="geometry">
                        <mxPoint x="240" y="310" as="sourcePoint"/>
                        <mxPoint x="380" y="310" as="targetPoint"/>
                    </mxGeometry>
                </mxCell>
                <mxCell id="25" value="" style="endArrow=classic;startArrow=classic;html=1;" edge="1" parent="1">
                    <mxGeometry width="50" height="50" relative="1" as="geometry">
                        <mxPoint x="340" y="210" as="sourcePoint"/>
                        <mxPoint x="380" y="250" as="targetPoint"/>
                    </mxGeometry>
                </mxCell>
                <mxCell id="26" value="" style="endArrow=classic;startArrow=classic;html=1;" edge="1" parent="1">
                    <mxGeometry width="50" height="50" relative="1" as="geometry">
                        <mxPoint x="560" y="200" as="sourcePoint"/>
                        <mxPoint x="460" y="260" as="targetPoint"/>
                    </mxGeometry>
                </mxCell>
                <mxCell id="27" value="" style="endArrow=classic;startArrow=classic;html=1;" edge="1" parent="1">
                    <mxGeometry width="50" height="50" relative="1" as="geometry">
                        <mxPoint x="460" y="320" as="sourcePoint"/>
                        <mxPoint x="670" y="330" as="targetPoint"/>
                    </mxGeometry>
                </mxCell>
                <mxCell id="28" value="" style="endArrow=classic;startArrow=classic;html=1;" edge="1" parent="1">
                    <mxGeometry width="50" height="50" relative="1" as="geometry">
                        <mxPoint x="360" y="440" as="sourcePoint"/>
                        <mxPoint x="400" y="340" as="targetPoint"/>
                    </mxGeometry>
                </mxCell>
                <mxCell id="29" value="" style="endArrow=classic;startArrow=classic;html=1;" edge="1" parent="1">
                    <mxGeometry width="50" height="50" relative="1" as="geometry">
                        <mxPoint x="440" y="350" as="sourcePoint"/>
                        <mxPoint x="500" y="410" as="targetPoint"/>
                    </mxGeometry>
                </mxCell>
            </root>
        </mxGraphModel>
    </diagram>
    <diagram id="oF0pbx-X_0bEZ9zDANaB" name="distribuÃ­do">
        <mxGraphModel dx="1555" dy="775" grid="1" gridSize="10" guides="1" tooltips="1" connect="1" arrows="1" fold="1" page="1" pageScale="1" pageWidth="850" pageHeight="1100" math="0" shadow="0">
            <root>
                <mxCell id="_gpickraRS32eTvQDQjD-0"/>
                <mxCell id="_gpickraRS32eTvQDQjD-1" parent="_gpickraRS32eTvQDQjD-0"/>
                <mxCell id="_gpickraRS32eTvQDQjD-2" value="" style="shape=cylinder3;whiteSpace=wrap;html=1;boundedLbl=1;backgroundOutline=1;size=15;fillColor=#dae8fc;strokeColor=#6c8ebf;" vertex="1" parent="_gpickraRS32eTvQDQjD-1">
                    <mxGeometry x="390" y="250" width="60" height="80" as="geometry"/>
                </mxCell>
                <mxCell id="_gpickraRS32eTvQDQjD-3" value="" style="pointerEvents=1;shadow=0;dashed=0;html=1;strokeColor=none;fillColor=#505050;labelPosition=center;verticalLabelPosition=bottom;verticalAlign=top;outlineConnect=0;align=center;shape=mxgraph.office.devices.mac_client;" vertex="1" parent="_gpickraRS32eTvQDQjD-1">
                    <mxGeometry x="130" y="260" width="58" height="48" as="geometry"/>
                </mxCell>
                <mxCell id="_gpickraRS32eTvQDQjD-4" value="" style="pointerEvents=1;shadow=0;dashed=0;html=1;strokeColor=none;fillColor=#505050;labelPosition=center;verticalLabelPosition=bottom;verticalAlign=top;outlineConnect=0;align=center;shape=mxgraph.office.devices.mac_client;" vertex="1" parent="_gpickraRS32eTvQDQjD-1">
                    <mxGeometry x="270" y="110" width="58" height="48" as="geometry"/>
                </mxCell>
                <mxCell id="_gpickraRS32eTvQDQjD-5" value="" style="pointerEvents=1;shadow=0;dashed=0;html=1;strokeColor=none;fillColor=#505050;labelPosition=center;verticalLabelPosition=bottom;verticalAlign=top;outlineConnect=0;align=center;shape=mxgraph.office.devices.mac_client;" vertex="1" parent="_gpickraRS32eTvQDQjD-1">
                    <mxGeometry x="520" y="110" width="58" height="48" as="geometry"/>
                </mxCell>
                <mxCell id="_gpickraRS32eTvQDQjD-6" value="" style="pointerEvents=1;shadow=0;dashed=0;html=1;strokeColor=none;fillColor=#505050;labelPosition=center;verticalLabelPosition=bottom;verticalAlign=top;outlineConnect=0;align=center;shape=mxgraph.office.devices.mac_client;" vertex="1" parent="_gpickraRS32eTvQDQjD-1">
                    <mxGeometry x="270" y="420" width="58" height="48" as="geometry"/>
                </mxCell>
                <mxCell id="_gpickraRS32eTvQDQjD-7" value="" style="pointerEvents=1;shadow=0;dashed=0;html=1;strokeColor=none;fillColor=#505050;labelPosition=center;verticalLabelPosition=bottom;verticalAlign=top;outlineConnect=0;align=center;shape=mxgraph.office.devices.mac_client;" vertex="1" parent="_gpickraRS32eTvQDQjD-1">
                    <mxGeometry x="630" y="260" width="58" height="48" as="geometry"/>
                </mxCell>
                <mxCell id="_gpickraRS32eTvQDQjD-8" value="" style="pointerEvents=1;shadow=0;dashed=0;html=1;strokeColor=none;fillColor=#505050;labelPosition=center;verticalLabelPosition=bottom;verticalAlign=top;outlineConnect=0;align=center;shape=mxgraph.office.devices.mac_client;" vertex="1" parent="_gpickraRS32eTvQDQjD-1">
                    <mxGeometry x="500" y="420" width="58" height="48" as="geometry"/>
                </mxCell>
                <mxCell id="_gpickraRS32eTvQDQjD-9" value="" style="shape=cylinder3;whiteSpace=wrap;html=1;boundedLbl=1;backgroundOutline=1;size=15;fillColor=#dae8fc;strokeColor=#6c8ebf;" vertex="1" parent="_gpickraRS32eTvQDQjD-1">
                    <mxGeometry x="188" y="290" width="37.5" height="50" as="geometry"/>
                </mxCell>
                <mxCell id="_gpickraRS32eTvQDQjD-10" value="" style="shape=cylinder3;whiteSpace=wrap;html=1;boundedLbl=1;backgroundOutline=1;size=15;fillColor=#dae8fc;strokeColor=#6c8ebf;" vertex="1" parent="_gpickraRS32eTvQDQjD-1">
                    <mxGeometry x="310" y="150" width="37.5" height="50" as="geometry"/>
                </mxCell>
                <mxCell id="_gpickraRS32eTvQDQjD-11" value="" style="shape=cylinder3;whiteSpace=wrap;html=1;boundedLbl=1;backgroundOutline=1;size=15;fillColor=#dae8fc;strokeColor=#6c8ebf;" vertex="1" parent="_gpickraRS32eTvQDQjD-1">
                    <mxGeometry x="570" y="150" width="37.5" height="50" as="geometry"/>
                </mxCell>
                <mxCell id="_gpickraRS32eTvQDQjD-12" value="" style="shape=cylinder3;whiteSpace=wrap;html=1;boundedLbl=1;backgroundOutline=1;size=15;fillColor=#dae8fc;strokeColor=#6c8ebf;" vertex="1" parent="_gpickraRS32eTvQDQjD-1">
                    <mxGeometry x="680" y="300" width="37.5" height="50" as="geometry"/>
                </mxCell>
                <mxCell id="_gpickraRS32eTvQDQjD-13" value="" style="shape=cylinder3;whiteSpace=wrap;html=1;boundedLbl=1;backgroundOutline=1;size=15;fillColor=#dae8fc;strokeColor=#6c8ebf;" vertex="1" parent="_gpickraRS32eTvQDQjD-1">
                    <mxGeometry x="328" y="450" width="37.5" height="50" as="geometry"/>
                </mxCell>
                <mxCell id="_gpickraRS32eTvQDQjD-14" value="" style="shape=cylinder3;whiteSpace=wrap;html=1;boundedLbl=1;backgroundOutline=1;size=15;fillColor=#dae8fc;strokeColor=#6c8ebf;" vertex="1" parent="_gpickraRS32eTvQDQjD-1">
                    <mxGeometry x="558" y="450" width="37.5" height="50" as="geometry"/>
                </mxCell>
                <mxCell id="_gpickraRS32eTvQDQjD-15" value="" style="endArrow=classic;startArrow=classic;html=1;" edge="1" parent="_gpickraRS32eTvQDQjD-1">
                    <mxGeometry width="50" height="50" relative="1" as="geometry">
                        <mxPoint x="240" y="310" as="sourcePoint"/>
                        <mxPoint x="380" y="310" as="targetPoint"/>
                    </mxGeometry>
                </mxCell>
                <mxCell id="_gpickraRS32eTvQDQjD-16" value="" style="endArrow=classic;startArrow=classic;html=1;" edge="1" parent="_gpickraRS32eTvQDQjD-1">
                    <mxGeometry width="50" height="50" relative="1" as="geometry">
                        <mxPoint x="340" y="210" as="sourcePoint"/>
                        <mxPoint x="380" y="250" as="targetPoint"/>
                    </mxGeometry>
                </mxCell>
                <mxCell id="_gpickraRS32eTvQDQjD-17" value="" style="endArrow=classic;startArrow=classic;html=1;" edge="1" parent="_gpickraRS32eTvQDQjD-1">
                    <mxGeometry width="50" height="50" relative="1" as="geometry">
                        <mxPoint x="560" y="200" as="sourcePoint"/>
                        <mxPoint x="460" y="260" as="targetPoint"/>
                    </mxGeometry>
                </mxCell>
                <mxCell id="_gpickraRS32eTvQDQjD-18" value="" style="endArrow=classic;startArrow=classic;html=1;" edge="1" parent="_gpickraRS32eTvQDQjD-1">
                    <mxGeometry width="50" height="50" relative="1" as="geometry">
                        <mxPoint x="460" y="320" as="sourcePoint"/>
                        <mxPoint x="670" y="330" as="targetPoint"/>
                    </mxGeometry>
                </mxCell>
                <mxCell id="_gpickraRS32eTvQDQjD-19" value="" style="endArrow=classic;startArrow=classic;html=1;" edge="1" parent="_gpickraRS32eTvQDQjD-1">
                    <mxGeometry width="50" height="50" relative="1" as="geometry">
                        <mxPoint x="360" y="440" as="sourcePoint"/>
                        <mxPoint x="400" y="340" as="targetPoint"/>
                    </mxGeometry>
                </mxCell>
                <mxCell id="_gpickraRS32eTvQDQjD-20" value="" style="endArrow=classic;startArrow=classic;html=1;" edge="1" parent="_gpickraRS32eTvQDQjD-1">
                    <mxGeometry width="50" height="50" relative="1" as="geometry">
                        <mxPoint x="440" y="350" as="sourcePoint"/>
                        <mxPoint x="500" y="410" as="targetPoint"/>
                    </mxGeometry>
                </mxCell>
                <mxCell id="_gpickraRS32eTvQDQjD-22" value="" style="endArrow=classic;startArrow=classic;html=1;" edge="1" parent="_gpickraRS32eTvQDQjD-1">
                    <mxGeometry width="50" height="50" relative="1" as="geometry">
                        <mxPoint x="380" y="490" as="sourcePoint"/>
                        <mxPoint x="545" y="490" as="targetPoint"/>
                    </mxGeometry>
                </mxCell>
                <mxCell id="_gpickraRS32eTvQDQjD-23" value="" style="endArrow=classic;startArrow=classic;html=1;" edge="1" parent="_gpickraRS32eTvQDQjD-1">
                    <mxGeometry width="50" height="50" relative="1" as="geometry">
                        <mxPoint x="590" y="430" as="sourcePoint"/>
                        <mxPoint x="680" y="360" as="targetPoint"/>
                    </mxGeometry>
                </mxCell>
                <mxCell id="_gpickraRS32eTvQDQjD-24" value="" style="endArrow=classic;startArrow=classic;html=1;" edge="1" parent="_gpickraRS32eTvQDQjD-1">
                    <mxGeometry width="50" height="50" relative="1" as="geometry">
                        <mxPoint x="580" y="430" as="sourcePoint"/>
                        <mxPoint x="590" y="210" as="targetPoint"/>
                    </mxGeometry>
                </mxCell>
            </root>
        </mxGraphModel>
    </diagram>
</mxfile>